<svg xmlns="http://www.w3.org/2000/svg" width="215.101" height="178" viewBox="0 0 215.101 178">
  <g id="Group_1935" data-name="Group 1935" transform="translate(-983.5 -131)">
    <rect id="Rectangle_2714" data-name="Rectangle 2714" width="179" height="178" rx="89" transform="translate(1001 131)" fill="#e0f2ff"/>
    <g id="oc-megaphone" transform="translate(983 144)">
      <path id="Path_6182" data-name="Path 6182" d="M27.816,3l41.69,34.246M40.968,41.712,59.58,50.646M3,66.776H55.113m-15.882,26.8,20.349-6.2M17.145,130.552l52.361-28.786" fill="none" stroke="#181d31" stroke-linecap="round" stroke-width="5"/>
      <path id="Path_6183" data-name="Path 6183" d="M224.172,93.446c0,11.48-2.576,21.812-6.677,29.23-4.125,7.461-9.625,11.716-15.409,11.716s-11.283-4.255-15.409-11.716c-4.1-7.418-6.677-17.75-6.677-29.23s2.576-21.812,6.677-29.23C190.8,56.755,196.3,52.5,202.086,52.5s11.283,4.255,15.409,11.716C221.6,71.634,224.172,81.966,224.172,93.446Z" transform="translate(-89.153 -24.933)" fill="none" stroke="#181d31" stroke-width="5"/>
      <ellipse id="Ellipse_96" data-name="Ellipse 96" cx="3.97" cy="7.445" rx="3.97" ry="7.445" transform="translate(106.977 61.069)" fill="#181d31"/>
      <path id="Path_6184" data-name="Path 6184" d="M407.5,135.141c1.588-4.765.662-11.746,0-14.641l7.693,2.73a6.582,6.582,0,0,1,0,8.934Z" transform="translate(-203.742 -59.183)" fill="#181d31"/>
      <path id="Path_6185" data-name="Path 6185" d="M323.27,88.727,225,52m6.452,80.154L323.27,97.661" transform="translate(-111.819 -24.681)" fill="none" stroke="#181d31" stroke-linecap="round" stroke-width="5"/>
      <path id="Path_6186" data-name="Path 6186" d="M220,115.7l22.83-7.2M220,127.608l22.83,8.189" transform="translate(-109.3 -53.139)" fill="none" stroke="#181d31" stroke-linecap="round" stroke-width="5"/>
      <path id="Path_6187" data-name="Path 6187" d="M330.265,270.485c-5.708,1.489-10.174-.744-10.919-1.985-.218,1.585-1.172,6.741-.248,10.174a4.558,4.558,0,0,0,3.226,3.226,4.443,4.443,0,0,0,4.467-1.489C329.006,277.563,329.993,272.118,330.265,270.485Z" transform="translate(-159.015 -133.729)" fill="#181d31"/>
      <path id="Path_6188" data-name="Path 6188" d="M323.563,173.7l-4.715,45.164c-.353,5.211-2.233,10.919,2.73,12.408,6.06,1.818,6.7-3.722,7.941-9.43l5.211-27.3,4.963-27.049" transform="translate(-158.765 -82.857)" fill="none" stroke="#181d31" stroke-linecap="round" stroke-width="5"/>
      <path id="Path_6189" data-name="Path 6189" d="M423,126a6.906,6.906,0,0,1,0,8.934" transform="translate(-211.549 -61.954)" fill="none" stroke="#181d31" stroke-linecap="round" stroke-width="5"/>
      <path id="Path_6190" data-name="Path 6190" d="M406.5,120a27.966,27.966,0,0,1,0,14.889" transform="translate(-203.238 -58.931)" fill="none" stroke="#181d31" stroke-linecap="round" stroke-width="5"/>
    </g>
  </g>
</svg>
