<svg xmlns="http://www.w3.org/2000/svg" xmlns:xlink="http://www.w3.org/1999/xlink" width="826.188" height="586.539" viewBox="0 0 826.188 586.539"><defs><filter id="Union_5" width="51.83" height="51.909" x="199.458" y="149.206" filterUnits="userSpaceOnUse"><feOffset dx="5" dy="3" input="SourceAlpha"/><feGaussianBlur result="blur" stdDeviation="7.5"/><feFlood flood-opacity=".098"/><feComposite in2="blur" operator="in"/><feComposite in="SourceGraphic"/></filter><filter id="Union_3" width="52.403" height="52.403" x="608.88" y="286.49" filterUnits="userSpaceOnUse"><feOffset dx="5" dy="3" input="SourceAlpha"/><feGaussianBlur result="blur-2" stdDeviation="7.5"/><feFlood flood-opacity=".098"/><feComposite in2="blur-2" operator="in"/><feComposite in="SourceGraphic"/></filter><filter id="Union_4" width="55.47" height="55.47" x="370.664" y="403.144" filterUnits="userSpaceOnUse"><feOffset dx="5" dy="3" input="SourceAlpha"/><feGaussianBlur result="blur-3" stdDeviation="7.5"/><feFlood flood-opacity=".098"/><feComposite in2="blur-3" operator="in"/><feComposite in="SourceGraphic"/></filter><filter id="Rectangle_2687" width="407.491" height="81.122" x="224.433" y="166.762" filterUnits="userSpaceOnUse"><feOffset dy="3" input="SourceAlpha"/><feGaussianBlur result="blur-4" stdDeviation="3"/><feFlood flood-opacity=".18"/><feComposite in2="blur-4" operator="in"/><feComposite in="SourceGraphic"/></filter><filter id="Rectangle_2686" width="407.491" height="81.122" x="224.433" y="184.719" filterUnits="userSpaceOnUse"><feOffset dy="3" input="SourceAlpha"/><feGaussianBlur result="blur-5" stdDeviation="3"/><feFlood flood-opacity=".18"/><feComposite in2="blur-5" operator="in"/><feComposite in="SourceGraphic"/></filter><filter id="Rectangle_2671" width="407.491" height="221.675" x="224.433" y="206.608" filterUnits="userSpaceOnUse"><feOffset dy="3" input="SourceAlpha"/><feGaussianBlur result="blur-6" stdDeviation="3"/><feFlood flood-opacity=".18"/><feComposite in2="blur-6" operator="in"/><feComposite in="SourceGraphic"/></filter><filter id="Rectangle_2673" width="165.479" height="248.675" x="215.933" y="193.108" filterUnits="userSpaceOnUse"><feOffset dx="5" dy="3" input="SourceAlpha"/><feGaussianBlur result="blur-7" stdDeviation="7.5"/><feFlood flood-opacity=".098"/><feComposite in2="blur-7" operator="in"/><feComposite in="SourceGraphic"/></filter><filter id="Rectangle_2674" width="139.091" height="60.294" x="229.127" y="211.066" filterUnits="userSpaceOnUse"><feOffset dx="5" dy="3" input="SourceAlpha"/><feGaussianBlur result="blur-8" stdDeviation="7.5"/><feFlood flood-opacity=".098"/><feComposite in2="blur-8" operator="in"/><feComposite in="SourceGraphic"/></filter><filter id="Rectangle_2677" width="139.091" height="60.294" x="229.127" y="264.576" filterUnits="userSpaceOnUse"><feOffset dx="5" dy="3" input="SourceAlpha"/><feGaussianBlur result="blur-9" stdDeviation="7.5"/><feFlood flood-opacity=".098"/><feComposite in2="blur-9" operator="in"/><feComposite in="SourceGraphic"/></filter><filter id="Rectangle_2675" width="139.091" height="60.294" x="229.127" y="237.455" filterUnits="userSpaceOnUse"><feOffset dx="5" dy="3" input="SourceAlpha"/><feGaussianBlur result="blur-10" stdDeviation="7.5"/><feFlood flood-opacity=".098"/><feComposite in2="blur-10" operator="in"/><feComposite in="SourceGraphic"/></filter><filter id="Rectangle_2676" width="139.091" height="60.294" x="229.127" y="291.696" filterUnits="userSpaceOnUse"><feOffset dx="5" dy="3" input="SourceAlpha"/><feGaussianBlur result="blur-11" stdDeviation="7.5"/><feFlood flood-opacity=".098"/><feComposite in2="blur-11" operator="in"/><feComposite in="SourceGraphic"/></filter><filter id="Rectangle_2678" width="90.827" height="50.116" x="371.378" y="226.131" filterUnits="userSpaceOnUse"><feOffset dy="6" input="SourceAlpha"/><feGaussianBlur result="blur-12" stdDeviation="4"/><feFlood flood-color="#8d8d8d" flood-opacity=".149"/><feComposite in2="blur-12" operator="in"/><feComposite in="SourceGraphic"/></filter><filter id="Rectangle_2681" width="91.595" height="50.116" x="443.581" y="226.131" filterUnits="userSpaceOnUse"><feOffset dy="6" input="SourceAlpha"/><feGaussianBlur result="blur-13" stdDeviation="4"/><feFlood flood-color="#8d8d8d" flood-opacity=".149"/><feComposite in2="blur-13" operator="in"/><feComposite in="SourceGraphic"/></filter><filter id="Rectangle_2682" width="90.827" height="50.116" x="516.553" y="226.131" filterUnits="userSpaceOnUse"><feOffset dy="6" input="SourceAlpha"/><feGaussianBlur result="blur-14" stdDeviation="4"/><feFlood flood-color="#8d8d8d" flood-opacity=".149"/><feComposite in2="blur-14" operator="in"/><feComposite in="SourceGraphic"/></filter><filter id="Path_945" width="254.408" height="79.809" x="362.562" y="292.494" filterUnits="userSpaceOnUse"><feOffset dy="3" input="SourceAlpha"/><feGaussianBlur result="blur-15" stdDeviation="4"/><feFlood flood-opacity=".271"/><feComposite in2="blur-15" operator="in"/><feComposite in="SourceGraphic"/></filter><filter id="Path_946" width="254.72" height="123.342" x="362.475" y="272.927" filterUnits="userSpaceOnUse"><feOffset dy="3" input="SourceAlpha"/><feGaussianBlur result="blur-16" stdDeviation="4"/><feFlood flood-opacity=".192"/><feComposite in2="blur-16" operator="in"/><feComposite in="SourceGraphic"/></filter><filter id="Rectangle_2688" width="139.11" height="103.274" x="271.487" y="364.764" filterUnits="userSpaceOnUse"><feOffset dx="5" dy="3" input="SourceAlpha"/><feGaussianBlur result="blur-17" stdDeviation="7.5"/><feFlood flood-opacity=".098"/><feComposite in2="blur-17" operator="in"/><feComposite in="SourceGraphic"/></filter><filter id="Polygon_2" width="53.917" height="47.32" x="285.995" y="400.621" filterUnits="userSpaceOnUse"><feOffset dy="3" input="SourceAlpha"/><feGaussianBlur result="blur-18" stdDeviation="3"/><feFlood flood-opacity=".161"/><feComposite in2="blur-18" operator="in"/><feComposite in="SourceGraphic"/></filter><filter id="Polygon_1" width="72.975" height="63.446" x="313.116" y="384.495" filterUnits="userSpaceOnUse"><feOffset dy="3" input="SourceAlpha"/><feGaussianBlur result="blur-19" stdDeviation="3"/><feFlood flood-opacity=".161"/><feComposite in2="blur-19" operator="in"/><feComposite in="SourceGraphic"/></filter><filter id="Ellipse_76" width="31.194" height="31.194" x="312.383" y="386.694" filterUnits="userSpaceOnUse"><feOffset dy="3" input="SourceAlpha"/><feGaussianBlur result="blur-20" stdDeviation="3"/><feFlood flood-opacity=".161"/><feComposite in2="blur-20" operator="in"/><feComposite in="SourceGraphic"/></filter></defs><g id="Group_1956" data-name="Group 1956" transform="translate(-127.414 63.995)"><path id="Path_6134" fill="#5fc6b8" d="M176.733-21.344c21.4,21.849,24.524,63.317,16.5,104.117s-26.754,80.93-61.756,103.894c-34.78,22.964-85.612,28.983-123.513,9.81C-30.163,177.525-55.356,133.6-60.484,91.022c-4.9-42.583,9.81-84.051,35.895-106.792S38.505-42.747,76.852-43.862C115.422-44.976,155.33-43.193,176.733-21.344Z" data-name="Path 6134" transform="translate(631.052 105.389)" style="mix-blend-mode:overlay;isolation:isolate"/><path id="Path_6308" fill="#6c8fe2" d="M225.034-16.726c25.744,26.28,29.5,76.159,19.844,125.233S212.7,205.851,170.6,233.472c-41.834,27.621-102.975,34.861-148.563,11.8-45.856-22.794-76.159-75.623-82.327-126.842-5.9-51.219,11.8-101.1,43.175-128.451S58.771-42.47,104.9-43.811C151.288-45.152,199.29-43.006,225.034-16.726Z" data-name="Path 6308" transform="translate(314.105 138.233)" style="mix-blend-mode:overlay;isolation:isolate"/><g id="Ellipse_77" fill="none" stroke="#389bd9" stroke-width="45" data-name="Ellipse 77" transform="matrix(0.966, 0.259, -0.259, 0.966, 456.52, 26.145)"><ellipse cx="125.462" cy="125.462" stroke="none" rx="125.462" ry="125.462"/><ellipse cx="125.462" cy="125.462" fill="none" rx="102.962" ry="102.962"/></g><g id="Ellipse_78" fill="#389bd9" stroke="#5878c7" stroke-width="35" data-name="Ellipse 78" opacity=".414" transform="matrix(0.966, 0.259, -0.259, 0.966, 553.662, 271.116)"><ellipse cx="55.827" cy="55.827" stroke="none" rx="55.827" ry="55.827"/><ellipse cx="55.827" cy="55.827" fill="none" rx="38.327" ry="38.327"/></g><g filter="url(#Union_5)" transform="matrix(1, 0, 0, 1, 127.41, -63.99)"><path id="Union_5-2" fill="#fff" d="M.957,6.69A1.154,1.154,0,0,1,.633,5L1.706,3.59.385,2.372a1.146,1.146,0,0,1,0-1.715,1.4,1.4,0,0,1,1.86,0l.994.918.8-1.059a1.384,1.384,0,0,1,1.829-.3A1.155,1.155,0,0,1,6.2,1.907L5.127,3.314,6.444,4.53a1.145,1.145,0,0,1,0,1.715,1.4,1.4,0,0,1-1.86,0l-.991-.914L2.786,6.393a1.345,1.345,0,0,1-1.076.516A1.372,1.372,0,0,1,.957,6.69Z" data-name="Union 5" transform="translate(216.96 168.71)"/></g><g filter="url(#Union_3)" transform="matrix(1, 0, 0, 1, 127.41, -63.99)"><path id="Union_3-2" fill="#fff" d="M2.569,6.268V4.839H1.136a1.136,1.136,0,1,1,0-2.272H2.569V1.136a1.135,1.135,0,1,1,2.271,0V2.568H6.268a1.136,1.136,0,0,1,0,2.272H4.84V6.268a1.135,1.135,0,1,1-2.271,0Z" data-name="Union 3" transform="translate(626.38 305.99)"/></g><g filter="url(#Union_4)" transform="matrix(1, 0, 0, 1, 127.41, -63.99)"><path id="Union_4-2" fill="#fff" d="M2.569,6.268V4.839H1.136a1.136,1.136,0,1,1,0-2.272H2.569V1.136a1.135,1.135,0,1,1,2.271,0V2.568H6.268a1.136,1.136,0,0,1,0,2.272H4.84V6.268a1.135,1.135,0,1,1-2.271,0Z" data-name="Union 4" transform="translate(393.4 422.64) rotate(45)"/></g><g filter="url(#Rectangle_2687)" transform="matrix(1, 0, 0, 1, 127.41, -63.99)"><rect id="Rectangle_2687-2" width="388.491" height="62.122" fill="#fff" stroke="#eef0f7" stroke-width="1" data-name="Rectangle 2687" opacity=".498" rx="10" transform="translate(233.93 173.26)"/></g><g filter="url(#Rectangle_2686)" transform="matrix(1, 0, 0, 1, 127.41, -63.99)"><rect id="Rectangle_2686-2" width="388.491" height="62.122" fill="#fff" stroke="#eef0f7" stroke-width="1" data-name="Rectangle 2686" opacity=".498" rx="10" transform="translate(233.93 191.22)"/></g><g filter="url(#Rectangle_2671)" transform="matrix(1, 0, 0, 1, 127.41, -63.99)"><rect id="Rectangle_2671-2" width="388.491" height="202.675" fill="#fff" stroke="#eef0f7" stroke-width="1" data-name="Rectangle 2671" rx="10" transform="translate(233.93 213.11)"/></g><g filter="url(#Rectangle_2673)" transform="matrix(1, 0, 0, 1, 127.41, -63.99)"><rect id="Rectangle_2673-2" width="119.479" height="202.675" fill="#fff" stroke="#eef0f7" stroke-width="1" data-name="Rectangle 2673" rx="10" transform="translate(233.93 213.11)"/></g><g filter="url(#Rectangle_2674)" transform="matrix(1, 0, 0, 1, 127.41, -63.99)"><rect id="Rectangle_2674-2" width="93.091" height="14.294" fill="#e1e3eb" stroke="#eef0f7" stroke-width="1" data-name="Rectangle 2674" rx="5" transform="translate(247.13 231.07)"/></g><g filter="url(#Rectangle_2677)" transform="matrix(1, 0, 0, 1, 127.41, -63.99)"><rect id="Rectangle_2677-2" width="93.091" height="14.294" fill="#e1e3eb" stroke="#eef0f7" stroke-width="1" data-name="Rectangle 2677" rx="5" transform="translate(247.13 284.58)"/></g><g filter="url(#Rectangle_2675)" transform="matrix(1, 0, 0, 1, 127.41, -63.99)"><rect id="Rectangle_2675-2" width="93.091" height="14.294" fill="#e1e3eb" stroke="#eef0f7" stroke-width="1" data-name="Rectangle 2675" rx="5" transform="translate(247.13 257.45)"/></g><g filter="url(#Rectangle_2676)" transform="matrix(1, 0, 0, 1, 127.41, -63.99)"><rect id="Rectangle_2676-2" width="93.091" height="14.294" fill="#e1e3eb" stroke="#eef0f7" stroke-width="1" data-name="Rectangle 2676" rx="5" transform="translate(247.13 311.7)"/></g><rect id="Rectangle_2683" width="93.091" height="14.294" fill="#eef7fe" data-name="Rectangle 2683" rx="5" transform="translate(374.541 326.317)"/><rect id="Rectangle_2672" width="227.096" height="37.2" fill="#f3f5fe" data-name="Rectangle 2672" rx="10" transform="translate(503.249 163.407)"/><g filter="url(#Rectangle_2678)" transform="matrix(1, 0, 0, 1, 127.41, -63.99)"><rect id="Rectangle_2678-2" width="66.827" height="26.116" fill="#fff" data-name="Rectangle 2678" rx="6" transform="translate(383.38 232.13)"/></g><g filter="url(#Rectangle_2681)" transform="matrix(1, 0, 0, 1, 127.41, -63.99)"><rect id="Rectangle_2681-2" width="67.595" height="26.116" fill="#fff" data-name="Rectangle 2681" rx="6" transform="translate(455.58 232.13)"/></g><g filter="url(#Rectangle_2682)" transform="matrix(1, 0, 0, 1, 127.41, -63.99)"><rect id="Rectangle_2682-2" width="66.827" height="26.116" fill="#fff" data-name="Rectangle 2682" rx="6" transform="translate(528.55 232.13)"/></g><g id="Group_710" data-name="Group 710" transform="translate(503.55 219.114)"><line id="Line_61" x2="228.697" fill="none" stroke="#f0f2fb" stroke-width="1" data-name="Line 61" transform="translate(0 0)"/><line id="Line_64" x2="228.697" fill="none" stroke="#f0f2fb" stroke-width="1" data-name="Line 64" transform="translate(0 49.294)"/><line id="Line_62" x2="228.697" fill="none" stroke="#f0f2fb" stroke-width="1" data-name="Line 62" transform="translate(0 24.647)"/><line id="Line_63" x2="228.697" fill="none" stroke="#f0f2fb" stroke-width="1" data-name="Line 63" transform="translate(0 73.942)"/><line id="Line_65" x2="228.697" fill="none" stroke="#f0f2fb" stroke-width="1" data-name="Line 65" transform="translate(0 98.589)"/></g><g id="Group_707" data-name="Group 707" transform="translate(516.935 175.818)"><rect id="Rectangle_2679" width="11.522" height="11.522" fill="#ffc4dd" data-name="Rectangle 2679" transform="translate(0 0)"/><rect id="Rectangle_2680" width="41.479" height="11.522" fill="#edf0fa" data-name="Rectangle 2680" rx="5.761" transform="translate(14.594 0)"/></g><g id="Group_708" data-name="Group 708" transform="translate(589.14 175.818)"><rect id="Rectangle_2679-2" width="11.522" height="11.522" fill="#ffc4dd" data-name="Rectangle 2679" transform="translate(0 0)"/><rect id="Rectangle_2680-2" width="39.942" height="11.522" fill="#edf0fa" data-name="Rectangle 2680" rx="5.761" transform="translate(15.362 0)"/></g><g id="Group_709" data-name="Group 709" transform="translate(661.342 175.818)"><rect id="Rectangle_2679-3" width="11.522" height="11.522" fill="#ffc4dd" data-name="Rectangle 2679" transform="translate(0 0)"/><rect id="Rectangle_2680-3" width="40.71" height="11.522" fill="#edf0fa" data-name="Rectangle 2680" rx="5.761" transform="translate(15.362 0)"/></g><g filter="url(#Path_945)" transform="matrix(1, 0, 0, 1, 127.41, -63.99)"><path id="Path_945-2" fill="none" stroke="#22259f" stroke-linecap="round" stroke-linejoin="round" stroke-width="3" d="M-9510.711-20300.639s22.208-1.1,70.705-31.984,62.181-20.912,104.7-10.729,51.4,5.271,51.4,5.271" data-name="Path 945" transform="translate(9886.85 20656.37)"/></g><g filter="url(#Path_946)" transform="matrix(1, 0, 0, 1, 127.41, -63.99)"><path id="Path_946-2" fill="none" stroke="#69d691" stroke-linecap="round" stroke-linejoin="round" stroke-width="3" d="M-10054.453-20207.732s87.157,12.246,122.071-45.279,98.564-48.473,105.2-49.715" data-name="Path 946" transform="translate(10430.62 20586.4)"/></g><circle id="Ellipse_72" cx="25.732" cy="25.732" r="25.732" fill="#45db8a" data-name="Ellipse 72" transform="translate(709.735 326.369)"/><circle id="Ellipse_73" cx="25.732" cy="25.732" r="25.732" fill="#54eb9a" data-name="Ellipse 73" transform="translate(709.735 326.369)"/><ellipse id="Ellipse_75" cx="11.138" cy="11.522" fill="#54eb9a" data-name="Ellipse 75" rx="11.138" ry="11.522" transform="translate(698.981 340.964)"/><g filter="url(#Rectangle_2688)" transform="matrix(1, 0, 0, 1, 127.41, -63.99)"><rect id="Rectangle_2688-2" width="94.11" height="58.274" fill="#fff" data-name="Rectangle 2688" rx="7" transform="translate(288.99 384.26)"/></g><g id="Group_712" data-name="Group 712"><g filter="url(#Polygon_2)" transform="translate(422.409 326.5) matrix(1, 0, 0, 1, -295, -390.49)"><path id="Polygon_2-2" fill="#688be4" d="M12.842,8.353a6,6,0,0,1,10.233,0l7.248,11.833a6,6,0,0,1-5.117,9.134h-14.5a6,6,0,0,1-5.117-9.134Z" data-name="Polygon 2" transform="translate(295 406.62)"/></g><g filter="url(#Polygon_1)" transform="translate(422.409 326.5) matrix(1, 0, 0, 1, -295, -390.49)"><path id="Polygon_1-2" fill="#45db8a" d="M22.354,8.488a6,6,0,0,1,10.268,0L49.468,36.341a6,6,0,0,1-5.134,9.105H10.641a6,6,0,0,1-5.134-9.105Z" data-name="Polygon 1" transform="translate(322.12 390.49)"/></g><g filter="url(#Ellipse_76)" transform="translate(422.409 326.5) matrix(1, 0, 0, 1, -295, -390.49)"><ellipse id="Ellipse_76-2" cx="6.597" cy="6.597" fill="#e67474" data-name="Ellipse 76" rx="6.597" ry="6.597" transform="translate(321.38 392.69)"/></g></g><text id="_" fill="#fafbfc" stroke="#fff" stroke-width=".3" data-name="%" font-family="GothamRounded-Medium, Gotham Rounded" font-size="12" font-weight="500" transform="matrix(0.999, -0.035, 0.035, 0.999, 379.964, 379.094)"><tspan x="-5" y="0">%</tspan></text></g></svg>