<svg xmlns="http://www.w3.org/2000/svg" xmlns:xlink="http://www.w3.org/1999/xlink" width="898.733" height="858.829" viewBox="0 0 898.733 858.829"><defs><filter id="Union_5" width="53.892" height="53.995" x="125.907" y="200.758" filterUnits="userSpaceOnUse"><feOffset dx="5" dy="3" input="SourceAlpha"/><feGaussianBlur result="blur" stdDeviation="7.5"/><feFlood flood-opacity=".098"/><feComposite in2="blur" operator="in"/><feComposite in="SourceGraphic"/></filter><filter id="Union_3" width="54.639" height="54.639" x="658.924" y="379.484" filterUnits="userSpaceOnUse"><feOffset dx="5" dy="3" input="SourceAlpha"/><feGaussianBlur result="blur-2" stdDeviation="7.5"/><feFlood flood-opacity=".098"/><feComposite in2="blur-2" operator="in"/><feComposite in="SourceGraphic"/></filter><filter id="Union_4" width="58.632" height="58.632" x="348.795" y="531.353" filterUnits="userSpaceOnUse"><feOffset dx="5" dy="3" input="SourceAlpha"/><feGaussianBlur result="blur-3" stdDeviation="7.5"/><feFlood flood-opacity=".098"/><feComposite in2="blur-3" operator="in"/><feComposite in="SourceGraphic"/></filter><filter id="Rectangle_2687" width="524.768" height="99.875" x="156.006" y="219.688" filterUnits="userSpaceOnUse"><feOffset dy="3" input="SourceAlpha"/><feGaussianBlur result="blur-4" stdDeviation="3"/><feFlood flood-opacity=".18"/><feComposite in2="blur-4" operator="in"/><feComposite in="SourceGraphic"/></filter><filter id="Rectangle_2686" width="524.768" height="99.875" x="156.006" y="243.067" filterUnits="userSpaceOnUse"><feOffset dy="3" input="SourceAlpha"/><feGaussianBlur result="blur-5" stdDeviation="3"/><feFlood flood-opacity=".18"/><feComposite in2="blur-5" operator="in"/><feComposite in="SourceGraphic"/></filter><filter id="Rectangle_2671" width="524.768" height="282.858" x="156.006" y="271.563" filterUnits="userSpaceOnUse"><feOffset dy="3" input="SourceAlpha"/><feGaussianBlur result="blur-6" stdDeviation="3"/><feFlood flood-opacity=".18"/><feComposite in2="blur-6" operator="in"/><feComposite in="SourceGraphic"/></filter><filter id="Rectangle_2673" width="201.547" height="309.858" x="147.506" y="258.063" filterUnits="userSpaceOnUse"><feOffset dx="5" dy="3" input="SourceAlpha"/><feGaussianBlur result="blur-7" stdDeviation="7.5"/><feFlood flood-opacity=".098"/><feComposite in2="blur-7" operator="in"/><feComposite in="SourceGraphic"/></filter><filter id="Rectangle_2674" width="167.193" height="64.608" x="164.683" y="281.442" filterUnits="userSpaceOnUse"><feOffset dx="5" dy="3" input="SourceAlpha"/><feGaussianBlur result="blur-8" stdDeviation="7.5"/><feFlood flood-opacity=".098"/><feComposite in2="blur-8" operator="in"/><feComposite in="SourceGraphic"/></filter><filter id="Rectangle_2677" width="167.193" height="64.608" x="164.683" y="351.106" filterUnits="userSpaceOnUse"><feOffset dx="5" dy="3" input="SourceAlpha"/><feGaussianBlur result="blur-9" stdDeviation="7.5"/><feFlood flood-opacity=".098"/><feComposite in2="blur-9" operator="in"/><feComposite in="SourceGraphic"/></filter><filter id="Rectangle_2675" width="167.193" height="64.608" x="164.683" y="315.798" filterUnits="userSpaceOnUse"><feOffset dx="5" dy="3" input="SourceAlpha"/><feGaussianBlur result="blur-10" stdDeviation="7.5"/><feFlood flood-opacity=".098"/><feComposite in2="blur-10" operator="in"/><feComposite in="SourceGraphic"/></filter><filter id="Rectangle_2676" width="167.193" height="64.608" x="164.683" y="386.413" filterUnits="userSpaceOnUse"><feOffset dx="5" dy="3" input="SourceAlpha"/><feGaussianBlur result="blur-11" stdDeviation="7.5"/><feFlood flood-opacity=".098"/><feComposite in2="blur-11" operator="in"/><feComposite in="SourceGraphic"/></filter><filter id="Rectangle_2678" width="111" height="58" x="348.065" y="296.829" filterUnits="userSpaceOnUse"><feOffset dy="6" input="SourceAlpha"/><feGaussianBlur result="blur-12" stdDeviation="4"/><feFlood flood-color="#8d8d8d" flood-opacity=".149"/><feComposite in2="blur-12" operator="in"/><feComposite in="SourceGraphic"/></filter><filter id="Rectangle_2681" width="112" height="58" x="442.065" y="296.829" filterUnits="userSpaceOnUse"><feOffset dy="6" input="SourceAlpha"/><feGaussianBlur result="blur-13" stdDeviation="4"/><feFlood flood-color="#8d8d8d" flood-opacity=".149"/><feComposite in2="blur-13" operator="in"/><feComposite in="SourceGraphic"/></filter><filter id="Rectangle_2682" width="111" height="58" x="537.065" y="296.829" filterUnits="userSpaceOnUse"><feOffset dy="6" input="SourceAlpha"/><feGaussianBlur result="blur-14" stdDeviation="4"/><feFlood flood-color="#8d8d8d" flood-opacity=".149"/><feComposite in2="blur-14" operator="in"/><feComposite in="SourceGraphic"/></filter><filter id="Path_945" width="322.872" height="95.73" x="337.064" y="384.583" filterUnits="userSpaceOnUse"><feOffset dy="3" input="SourceAlpha"/><feGaussianBlur result="blur-15" stdDeviation="4"/><feFlood flood-opacity=".271"/><feComposite in2="blur-15" operator="in"/><feComposite in="SourceGraphic"/></filter><filter id="Path_946" width="323.326" height="152.354" x="336.987" y="359.186" filterUnits="userSpaceOnUse"><feOffset dy="3" input="SourceAlpha"/><feGaussianBlur result="blur-16" stdDeviation="4"/><feFlood flood-opacity=".192"/><feComposite in2="blur-16" operator="in"/><feComposite in="SourceGraphic"/></filter><filter id="Rectangle_2688" width="167.52" height="120.865" x="219.681" y="481.387" filterUnits="userSpaceOnUse"><feOffset dx="5" dy="3" input="SourceAlpha"/><feGaussianBlur result="blur-17" stdDeviation="7.5"/><feFlood flood-opacity=".098"/><feComposite in2="blur-17" operator="in"/><feComposite in="SourceGraphic"/></filter><filter id="Polygon_2" width="64.76" height="56.171" x="236.002" y="523.993" filterUnits="userSpaceOnUse"><feOffset dy="3" input="SourceAlpha"/><feGaussianBlur result="blur-18" stdDeviation="3"/><feFlood flood-opacity=".161"/><feComposite in2="blur-18" operator="in"/><feComposite in="SourceGraphic"/></filter><filter id="Polygon_1" width="89.571" height="77.165" x="271.31" y="502.999" filterUnits="userSpaceOnUse"><feOffset dy="3" input="SourceAlpha"/><feGaussianBlur result="blur-19" stdDeviation="3"/><feFlood flood-opacity=".161"/><feComposite in2="blur-19" operator="in"/><feComposite in="SourceGraphic"/></filter><filter id="Ellipse_76" width="35.177" height="35.177" x="270.356" y="505.862" filterUnits="userSpaceOnUse"><feOffset dy="3" input="SourceAlpha"/><feGaussianBlur result="blur-20" stdDeviation="3"/><feFlood flood-opacity=".161"/><feComposite in2="blur-20" operator="in"/><feComposite in="SourceGraphic"/></filter></defs><g id="Group_1820" data-name="Group 1820" transform="translate(96.065 -30.171)"><path id="Path_6133" fill="#81adff" d="M282.968-11.187c30.95,31.6,35.464,91.562,23.858,150.561s-38.688,117.031-89.3,150.239c-50.295,33.207-123.8,41.912-178.61,14.186-55.131-27.4-91.562-90.917-98.977-152.5C-67.159,89.724-45.88,29.758-8.159-3.127S83.08-42.138,138.533-43.75C194.308-45.362,252.018-42.783,282.968-11.187Z" data-name="Path 6133" transform="translate(196.207 442.381)" style="mix-blend-mode:overlay;isolation:isolate"/><path id="Path_6134" fill="#5fc6b8" d="M248.625-14.471C276.489,13.974,280.553,67.96,270.1,121.076s-34.83,105.361-80.4,135.257c-45.279,29.9-111.456,37.733-160.8,12.771C-20.727,244.432-53.525,187.253-60.2,131.815-66.586,76.378-47.43,22.391-13.471-7.214S68.67-42.335,118.593-43.786C168.806-45.237,220.761-42.915,248.625-14.471Z" data-name="Path 6134" transform="translate(402.023 237.994)" style="mix-blend-mode:overlay;isolation:isolate"/><path id="Path_6135" fill="#0093ff" d="M248.625-14.471C276.489,13.974,280.553,67.96,270.1,121.076s-34.83,105.361-80.4,135.257c-45.279,29.9-111.456,37.733-160.8,12.771C-20.727,244.432-53.525,187.253-60.2,131.815-66.586,76.378-47.43,22.391-13.471-7.214S68.67-42.335,118.593-43.786C168.806-45.237,220.761-42.915,248.625-14.471Z" data-name="Path 6135" transform="translate(90.626 199.555)" style="mix-blend-mode:overlay;isolation:isolate"/><ellipse id="Ellipse_74" cx="266.5" cy="265" fill="#389bd9" data-name="Ellipse 74" rx="266.5" ry="265" transform="translate(57 209)"/><g id="Ellipse_77" fill="none" stroke="#389bd9" stroke-width="45" data-name="Ellipse 77" transform="matrix(0.966, 0.259, -0.259, 0.966, 193.346, 148.145)"><ellipse cx="163.336" cy="163.336" stroke="none" rx="163.336" ry="163.336"/><ellipse cx="163.336" cy="163.336" fill="none" rx="140.836" ry="140.836"/></g><g id="Ellipse_78" fill="#389bd9" stroke="#5878c7" stroke-width="35" data-name="Ellipse 78" opacity=".414" transform="matrix(0.966, 0.259, -0.259, 0.966, 319.813, 467.066)"><ellipse cx="72.679" cy="72.679" stroke="none" rx="72.679" ry="72.679"/><ellipse cx="72.679" cy="72.679" fill="none" rx="55.179" ry="55.179"/></g><g filter="url(#Union_5)" transform="matrix(1, 0, 0, 1, -96.07, 30.17)"><path id="Union_5-2" fill="#fff" d="M1.247,8.709a1.5,1.5,0,0,1-.422-2.2l1.4-1.838L.5,3.088A1.493,1.493,0,0,1,.5.855a1.818,1.818,0,0,1,2.421,0l1.294,1.2L5.266.672A1.8,1.8,0,0,1,7.646.285a1.5,1.5,0,0,1,.422,2.2L6.676,4.314,8.391,5.9a1.491,1.491,0,0,1,0,2.232,1.823,1.823,0,0,1-2.421,0L4.68,6.939,3.628,8.322a1.751,1.751,0,0,1-1.4.672A1.786,1.786,0,0,1,1.247,8.709Z" data-name="Union 5" transform="translate(143.41 220.26)"/></g><g filter="url(#Union_3)" transform="matrix(1, 0, 0, 1, -96.07, 30.17)"><path id="Union_3-2" fill="#fff" d="M3.346,8.159V6.3H1.48a1.479,1.479,0,1,1,0-2.957H3.346V1.478a1.479,1.479,0,0,1,2.957,0V3.342H8.162a1.479,1.479,0,1,1,0,2.957H6.3v1.86a1.479,1.479,0,1,1-2.957,0Z" data-name="Union 3" transform="translate(676.42 398.99)"/></g><g filter="url(#Union_4)" transform="matrix(1, 0, 0, 1, -96.07, 30.17)"><path id="Union_4-2" fill="#fff" d="M3.346,8.159V6.3H1.48a1.479,1.479,0,1,1,0-2.957H3.346V1.478a1.479,1.479,0,0,1,2.957,0V3.342H8.162a1.479,1.479,0,1,1,0,2.957H6.3v1.86a1.479,1.479,0,1,1-2.957,0Z" data-name="Union 4" transform="translate(373.11 550.85) rotate(45)"/></g><g filter="url(#Rectangle_2687)" transform="matrix(1, 0, 0, 1, -96.07, 30.17)"><rect id="Rectangle_2687-2" width="505.768" height="80.875" fill="#fff" stroke="#eef0f7" stroke-width="1" data-name="Rectangle 2687" opacity=".498" rx="10" transform="translate(165.51 226.19)"/></g><g filter="url(#Rectangle_2686)" transform="matrix(1, 0, 0, 1, -96.07, 30.17)"><rect id="Rectangle_2686-2" width="505.768" height="80.875" fill="#fff" stroke="#eef0f7" stroke-width="1" data-name="Rectangle 2686" opacity=".498" rx="10" transform="translate(165.51 249.57)"/></g><g filter="url(#Rectangle_2671)" transform="matrix(1, 0, 0, 1, -96.07, 30.17)"><rect id="Rectangle_2671-2" width="505.768" height="263.858" fill="#fff" stroke="#eef0f7" stroke-width="1" data-name="Rectangle 2671" rx="10" transform="translate(165.51 278.06)"/></g><g filter="url(#Rectangle_2673)" transform="matrix(1, 0, 0, 1, -96.07, 30.17)"><rect id="Rectangle_2673-2" width="155.547" height="263.858" fill="#fff" stroke="#eef0f7" stroke-width="1" data-name="Rectangle 2673" rx="10" transform="translate(165.51 278.06)"/></g><g filter="url(#Rectangle_2674)" transform="matrix(1, 0, 0, 1, -96.07, 30.17)"><rect id="Rectangle_2674-2" width="121.193" height="18.608" fill="#e1e3eb" stroke="#eef0f7" stroke-width="1" data-name="Rectangle 2674" rx="5" transform="translate(182.68 301.44)"/></g><g filter="url(#Rectangle_2677)" transform="matrix(1, 0, 0, 1, -96.07, 30.17)"><rect id="Rectangle_2677-2" width="121.193" height="18.608" fill="#e1e3eb" stroke="#eef0f7" stroke-width="1" data-name="Rectangle 2677" rx="5" transform="translate(182.68 371.11)"/></g><g filter="url(#Rectangle_2675)" transform="matrix(1, 0, 0, 1, -96.07, 30.17)"><rect id="Rectangle_2675-2" width="121.193" height="18.608" fill="#e1e3eb" stroke="#eef0f7" stroke-width="1" data-name="Rectangle 2675" rx="5" transform="translate(182.68 335.8)"/></g><g filter="url(#Rectangle_2676)" transform="matrix(1, 0, 0, 1, -96.07, 30.17)"><rect id="Rectangle_2676-2" width="121.193" height="18.608" fill="#e1e3eb" stroke="#eef0f7" stroke-width="1" data-name="Rectangle 2676" rx="5" transform="translate(182.68 406.41)"/></g><rect id="Rectangle_2683" width="121.193" height="18.608" fill="#eef7fe" data-name="Rectangle 2683" rx="5" transform="translate(86.618 538.932)"/><rect id="Rectangle_2672" width="295.651" height="48.43" fill="#f3f5fe" data-name="Rectangle 2672" rx="10" transform="translate(254.182 326.844)"/><g filter="url(#Rectangle_2678)" transform="matrix(1, 0, 0, 1, -96.07, 30.17)"><rect id="Rectangle_2678-2" width="87" height="34" fill="#fff" data-name="Rectangle 2678" rx="6" transform="translate(360.07 302.83)"/></g><g filter="url(#Rectangle_2681)" transform="matrix(1, 0, 0, 1, -96.07, 30.17)"><rect id="Rectangle_2681-2" width="88" height="34" fill="#fff" data-name="Rectangle 2681" rx="6" transform="translate(454.07 302.83)"/></g><g filter="url(#Rectangle_2682)" transform="matrix(1, 0, 0, 1, -96.07, 30.17)"><rect id="Rectangle_2682-2" width="87" height="34" fill="#fff" data-name="Rectangle 2682" rx="6" transform="translate(549.07 302.83)"/></g><g id="Group_710" data-name="Group 710" transform="translate(254.571 399.367)"><line id="Line_61" x2="297.735" fill="none" stroke="#f0f2fb" stroke-width="1" data-name="Line 61" transform="translate(0 0)"/><line id="Line_64" x2="297.735" fill="none" stroke="#f0f2fb" stroke-width="1" data-name="Line 64" transform="translate(0 64.175)"/><line id="Line_62" x2="297.735" fill="none" stroke="#f0f2fb" stroke-width="1" data-name="Line 62" transform="translate(0 32.088)"/><line id="Line_63" x2="297.735" fill="none" stroke="#f0f2fb" stroke-width="1" data-name="Line 63" transform="translate(0 96.263)"/><line id="Line_65" x2="297.735" fill="none" stroke="#f0f2fb" stroke-width="1" data-name="Line 65" transform="translate(0 128.35)"/></g><g id="Group_707" data-name="Group 707" transform="translate(272.226 342.588)"><rect id="Rectangle_2679" width="15" height="15" fill="#ffc4dd" data-name="Rectangle 2679" transform="translate(-0.226 0.412)"/><rect id="Rectangle_2680" width="54" height="15" fill="#edf0fa" data-name="Rectangle 2680" rx="7.5" transform="translate(18.774 0.412)"/></g><g id="Group_708" data-name="Group 708" transform="translate(365.744 342.588)"><rect id="Rectangle_2679-2" width="15" height="15" fill="#ffc4dd" data-name="Rectangle 2679" transform="translate(0.256 0.412)"/><rect id="Rectangle_2680-2" width="52" height="15" fill="#edf0fa" data-name="Rectangle 2680" rx="7.5" transform="translate(20.256 0.412)"/></g><g id="Group_709" data-name="Group 709" transform="translate(460.218 342.588)"><rect id="Rectangle_2679-3" width="15" height="15" fill="#ffc4dd" data-name="Rectangle 2679" transform="translate(-0.218 0.412)"/><rect id="Rectangle_2680-3" width="53" height="15" fill="#edf0fa" data-name="Rectangle 2680" rx="7.5" transform="translate(19.782 0.412)"/></g><g filter="url(#Path_945)" transform="matrix(1, 0, 0, 1, -96.07, 30.17)"><path id="Path_945-2" fill="none" stroke="#22259f" stroke-linecap="round" stroke-linejoin="round" stroke-width="3" d="M-9510.711-20284.715s28.912-1.428,92.05-41.639,80.952-27.225,136.3-13.969,66.91,6.865,66.91,6.865" data-name="Path 945" transform="translate(9861.35 20748.46)"/></g><g filter="url(#Path_946)" transform="matrix(1, 0, 0, 1, -96.07, 30.17)"><path id="Path_946-2" fill="none" stroke="#69d691" stroke-linecap="round" stroke-linejoin="round" stroke-width="3" d="M-10054.453-20179.055s113.469,15.941,158.921-58.949,128.319-63.109,136.961-64.723" data-name="Path 946" transform="translate(10405.13 20672.66)"/></g><circle id="Ellipse_72" cx="33.5" cy="33.5" r="33.5" fill="#45db8a" data-name="Ellipse 72" transform="translate(523 539)"/><circle id="Ellipse_73" cx="33.5" cy="33.5" r="33.5" fill="#54eb9a" data-name="Ellipse 73" transform="translate(523 539)"/><ellipse id="Ellipse_75" cx="14.5" cy="15" fill="#54eb9a" data-name="Ellipse 75" rx="14.5" ry="15" transform="translate(509 558)"/><g filter="url(#Rectangle_2688)" transform="matrix(1, 0, 0, 1, -96.07, 30.17)"><rect id="Rectangle_2688-2" width="122.52" height="75.865" fill="#fff" data-name="Rectangle 2688" rx="7" transform="translate(237.18 500.89)"/></g><g id="Group_712" data-name="Group 712"><g filter="url(#Polygon_2)" transform="translate(148.938 539.17) matrix(1, 0, 0, 1, -245, -509)"><path id="Polygon_2-2" fill="#688be4" d="M18.263,8.353a6,6,0,0,1,10.233,0L41.165,29.037a6,6,0,0,1-5.117,9.134H10.711a6,6,0,0,1-5.117-9.134Z" data-name="Polygon 2" transform="translate(245 529.99)"/></g><g filter="url(#Polygon_1)" transform="translate(148.938 539.17) matrix(1, 0, 0, 1, -245, -509)"><path id="Polygon_1-2" fill="#45db8a" d="M30.651,8.488a6,6,0,0,1,10.268,0L66.064,50.06a6,6,0,0,1-5.134,9.105H10.641A6,6,0,0,1,5.507,50.06Z" data-name="Polygon 1" transform="translate(280.31 509)"/></g><g filter="url(#Ellipse_76)" transform="translate(148.938 539.17) matrix(1, 0, 0, 1, -245, -509)"><ellipse id="Ellipse_76-2" cx="8.589" cy="8.588" fill="#e67474" data-name="Ellipse 76" rx="8.589" ry="8.588" transform="translate(279.36 511.86)"/></g></g><text id="_" fill="#fafbfc" stroke="#fff" stroke-width=".3" data-name="%" font-family="GothamRounded-Medium, Gotham Rounded" font-size="21" font-weight="500" transform="matrix(0.999, -0.035, 0.035, 0.999, 96.306, 611.533)"><tspan x="-8" y="0">%</tspan></text></g></svg>