<svg xmlns="http://www.w3.org/2000/svg" xmlns:xlink="http://www.w3.org/1999/xlink" width="898.733" height="858.829" viewBox="0 0 898.733 858.829">
  <defs>
    <filter id="Union_5" x="125.907" y="200.758" width="53.892" height="53.995" filterUnits="userSpaceOnUse">
      <feOffset dx="5" dy="3" input="SourceAlpha"/>
      <feGaussianBlur stdDeviation="7.5" result="blur"/>
      <feFlood flood-opacity="0.098"/>
      <feComposite operator="in" in2="blur"/>
      <feComposite in="SourceGraphic"/>
    </filter>
    <filter id="Union_3" x="658.924" y="379.484" width="54.639" height="54.639" filterUnits="userSpaceOnUse">
      <feOffset dx="5" dy="3" input="SourceAlpha"/>
      <feGaussianBlur stdDeviation="7.5" result="blur-2"/>
      <feFlood flood-opacity="0.098"/>
      <feComposite operator="in" in2="blur-2"/>
      <feComposite in="SourceGraphic"/>
    </filter>
    <filter id="Union_4" x="348.795" y="531.353" width="58.632" height="58.632" filterUnits="userSpaceOnUse">
      <feOffset dx="5" dy="3" input="SourceAlpha"/>
      <feGaussianBlur stdDeviation="7.5" result="blur-3"/>
      <feFlood flood-opacity="0.098"/>
      <feComposite operator="in" in2="blur-3"/>
      <feComposite in="SourceGraphic"/>
    </filter>
    <filter id="Rectangle_2687" x="156.006" y="219.688" width="524.768" height="99.875" filterUnits="userSpaceOnUse">
      <feOffset dy="3" input="SourceAlpha"/>
      <feGaussianBlur stdDeviation="3" result="blur-4"/>
      <feFlood flood-opacity="0.18"/>
      <feComposite operator="in" in2="blur-4"/>
      <feComposite in="SourceGraphic"/>
    </filter>
    <filter id="Rectangle_2686" x="156.006" y="243.067" width="524.768" height="99.875" filterUnits="userSpaceOnUse">
      <feOffset dy="3" input="SourceAlpha"/>
      <feGaussianBlur stdDeviation="3" result="blur-5"/>
      <feFlood flood-opacity="0.18"/>
      <feComposite operator="in" in2="blur-5"/>
      <feComposite in="SourceGraphic"/>
    </filter>
    <filter id="Rectangle_2671" x="156.006" y="271.563" width="524.768" height="282.858" filterUnits="userSpaceOnUse">
      <feOffset dy="3" input="SourceAlpha"/>
      <feGaussianBlur stdDeviation="3" result="blur-6"/>
      <feFlood flood-opacity="0.18"/>
      <feComposite operator="in" in2="blur-6"/>
      <feComposite in="SourceGraphic"/>
    </filter>
    <filter id="Rectangle_2673" x="147.506" y="258.063" width="201.547" height="309.858" filterUnits="userSpaceOnUse">
      <feOffset dx="5" dy="3" input="SourceAlpha"/>
      <feGaussianBlur stdDeviation="7.5" result="blur-7"/>
      <feFlood flood-opacity="0.098"/>
      <feComposite operator="in" in2="blur-7"/>
      <feComposite in="SourceGraphic"/>
    </filter>
    <filter id="Rectangle_2674" x="164.683" y="281.442" width="167.193" height="64.608" filterUnits="userSpaceOnUse">
      <feOffset dx="5" dy="3" input="SourceAlpha"/>
      <feGaussianBlur stdDeviation="7.5" result="blur-8"/>
      <feFlood flood-opacity="0.098"/>
      <feComposite operator="in" in2="blur-8"/>
      <feComposite in="SourceGraphic"/>
    </filter>
    <filter id="Rectangle_2677" x="164.683" y="351.106" width="167.193" height="64.608" filterUnits="userSpaceOnUse">
      <feOffset dx="5" dy="3" input="SourceAlpha"/>
      <feGaussianBlur stdDeviation="7.5" result="blur-9"/>
      <feFlood flood-opacity="0.098"/>
      <feComposite operator="in" in2="blur-9"/>
      <feComposite in="SourceGraphic"/>
    </filter>
    <filter id="Rectangle_2675" x="164.683" y="315.798" width="167.193" height="64.608" filterUnits="userSpaceOnUse">
      <feOffset dx="5" dy="3" input="SourceAlpha"/>
      <feGaussianBlur stdDeviation="7.5" result="blur-10"/>
      <feFlood flood-opacity="0.098"/>
      <feComposite operator="in" in2="blur-10"/>
      <feComposite in="SourceGraphic"/>
    </filter>
    <filter id="Rectangle_2676" x="164.683" y="386.413" width="167.193" height="64.608" filterUnits="userSpaceOnUse">
      <feOffset dx="5" dy="3" input="SourceAlpha"/>
      <feGaussianBlur stdDeviation="7.5" result="blur-11"/>
      <feFlood flood-opacity="0.098"/>
      <feComposite operator="in" in2="blur-11"/>
      <feComposite in="SourceGraphic"/>
    </filter>
    <filter id="Rectangle_2678" x="348.065" y="296.829" width="111" height="58" filterUnits="userSpaceOnUse">
      <feOffset dy="6" input="SourceAlpha"/>
      <feGaussianBlur stdDeviation="4" result="blur-12"/>
      <feFlood flood-color="#8d8d8d" flood-opacity="0.149"/>
      <feComposite operator="in" in2="blur-12"/>
      <feComposite in="SourceGraphic"/>
    </filter>
    <filter id="Rectangle_2681" x="442.065" y="296.829" width="112" height="58" filterUnits="userSpaceOnUse">
      <feOffset dy="6" input="SourceAlpha"/>
      <feGaussianBlur stdDeviation="4" result="blur-13"/>
      <feFlood flood-color="#8d8d8d" flood-opacity="0.149"/>
      <feComposite operator="in" in2="blur-13"/>
      <feComposite in="SourceGraphic"/>
    </filter>
    <filter id="Rectangle_2682" x="537.065" y="296.829" width="111" height="58" filterUnits="userSpaceOnUse">
      <feOffset dy="6" input="SourceAlpha"/>
      <feGaussianBlur stdDeviation="4" result="blur-14"/>
      <feFlood flood-color="#8d8d8d" flood-opacity="0.149"/>
      <feComposite operator="in" in2="blur-14"/>
      <feComposite in="SourceGraphic"/>
    </filter>
    <filter id="Path_945" x="337.064" y="384.583" width="322.872" height="95.73" filterUnits="userSpaceOnUse">
      <feOffset dy="3" input="SourceAlpha"/>
      <feGaussianBlur stdDeviation="4" result="blur-15"/>
      <feFlood flood-opacity="0.271"/>
      <feComposite operator="in" in2="blur-15"/>
      <feComposite in="SourceGraphic"/>
    </filter>
    <filter id="Path_946" x="336.987" y="359.186" width="323.326" height="152.354" filterUnits="userSpaceOnUse">
      <feOffset dy="3" input="SourceAlpha"/>
      <feGaussianBlur stdDeviation="4" result="blur-16"/>
      <feFlood flood-opacity="0.192"/>
      <feComposite operator="in" in2="blur-16"/>
      <feComposite in="SourceGraphic"/>
    </filter>
    <filter id="Rectangle_2688" x="219.681" y="481.387" width="167.52" height="120.865" filterUnits="userSpaceOnUse">
      <feOffset dx="5" dy="3" input="SourceAlpha"/>
      <feGaussianBlur stdDeviation="7.5" result="blur-17"/>
      <feFlood flood-opacity="0.098"/>
      <feComposite operator="in" in2="blur-17"/>
      <feComposite in="SourceGraphic"/>
    </filter>
    <filter id="Polygon_2" x="236.002" y="523.993" width="64.76" height="56.171" filterUnits="userSpaceOnUse">
      <feOffset dy="3" input="SourceAlpha"/>
      <feGaussianBlur stdDeviation="3" result="blur-18"/>
      <feFlood flood-opacity="0.161"/>
      <feComposite operator="in" in2="blur-18"/>
      <feComposite in="SourceGraphic"/>
    </filter>
    <filter id="Polygon_1" x="271.31" y="502.999" width="89.571" height="77.165" filterUnits="userSpaceOnUse">
      <feOffset dy="3" input="SourceAlpha"/>
      <feGaussianBlur stdDeviation="3" result="blur-19"/>
      <feFlood flood-opacity="0.161"/>
      <feComposite operator="in" in2="blur-19"/>
      <feComposite in="SourceGraphic"/>
    </filter>
    <filter id="Ellipse_76" x="270.356" y="505.862" width="35.177" height="35.177" filterUnits="userSpaceOnUse">
      <feOffset dy="3" input="SourceAlpha"/>
      <feGaussianBlur stdDeviation="3" result="blur-20"/>
      <feFlood flood-opacity="0.161"/>
      <feComposite operator="in" in2="blur-20"/>
      <feComposite in="SourceGraphic"/>
    </filter>
  </defs>
  <g id="Group_1820" data-name="Group 1820" transform="translate(96.065 -30.171)">
    <path id="Path_6133" data-name="Path 6133" d="M282.968-11.187c30.95,31.6,35.464,91.562,23.858,150.561s-38.688,117.031-89.3,150.239c-50.295,33.207-123.8,41.912-178.61,14.186-55.131-27.4-91.562-90.917-98.977-152.5C-67.159,89.724-45.88,29.758-8.159-3.127S83.08-42.138,138.533-43.75C194.308-45.362,252.018-42.783,282.968-11.187Z" transform="translate(196.207 442.381)" fill="#81adff" style="mix-blend-mode: overlay;isolation: isolate"/>
    <path id="Path_6134" data-name="Path 6134" d="M248.625-14.471C276.489,13.974,280.553,67.96,270.1,121.076s-34.83,105.361-80.4,135.257c-45.279,29.9-111.456,37.733-160.8,12.771C-20.727,244.432-53.525,187.253-60.2,131.815-66.586,76.378-47.43,22.391-13.471-7.214S68.67-42.335,118.593-43.786C168.806-45.237,220.761-42.915,248.625-14.471Z" transform="translate(402.023 237.994)" fill="#5fc6b8" style="mix-blend-mode: overlay;isolation: isolate"/>
    <path id="Path_6135" data-name="Path 6135" d="M248.625-14.471C276.489,13.974,280.553,67.96,270.1,121.076s-34.83,105.361-80.4,135.257c-45.279,29.9-111.456,37.733-160.8,12.771C-20.727,244.432-53.525,187.253-60.2,131.815-66.586,76.378-47.43,22.391-13.471-7.214S68.67-42.335,118.593-43.786C168.806-45.237,220.761-42.915,248.625-14.471Z" transform="translate(90.626 199.555)" fill="#0093ff" style="mix-blend-mode: overlay;isolation: isolate"/>
    <ellipse id="Ellipse_74" data-name="Ellipse 74" cx="266.5" cy="265" rx="266.5" ry="265" transform="translate(57 209)" fill="#389bd9"/>
    <g id="Ellipse_77" data-name="Ellipse 77" transform="matrix(0.966, 0.259, -0.259, 0.966, 193.346, 148.145)" fill="none" stroke="#389bd9" stroke-width="45">
      <ellipse cx="163.336" cy="163.336" rx="163.336" ry="163.336" stroke="none"/>
      <ellipse cx="163.336" cy="163.336" rx="140.836" ry="140.836" fill="none"/>
    </g>
    <g id="Ellipse_78" data-name="Ellipse 78" transform="matrix(0.966, 0.259, -0.259, 0.966, 319.813, 467.066)" fill="#389bd9" stroke="#5878c7" stroke-width="35" opacity="0.414">
      <ellipse cx="72.679" cy="72.679" rx="72.679" ry="72.679" stroke="none"/>
      <ellipse cx="72.679" cy="72.679" rx="55.179" ry="55.179" fill="none"/>
    </g>
    <g transform="matrix(1, 0, 0, 1, -96.07, 30.17)" filter="url(#Union_5)">
      <path id="Union_5-2" data-name="Union 5" d="M1.247,8.709a1.5,1.5,0,0,1-.422-2.2l1.4-1.838L.5,3.088A1.493,1.493,0,0,1,.5.855a1.818,1.818,0,0,1,2.421,0l1.294,1.2L5.266.672A1.8,1.8,0,0,1,7.646.285a1.5,1.5,0,0,1,.422,2.2L6.676,4.314,8.391,5.9a1.491,1.491,0,0,1,0,2.232,1.823,1.823,0,0,1-2.421,0L4.68,6.939,3.628,8.322a1.751,1.751,0,0,1-1.4.672A1.786,1.786,0,0,1,1.247,8.709Z" transform="translate(143.41 220.26)" fill="#fff"/>
    </g>
    <g transform="matrix(1, 0, 0, 1, -96.07, 30.17)" filter="url(#Union_3)">
      <path id="Union_3-2" data-name="Union 3" d="M3.346,8.159V6.3H1.48a1.479,1.479,0,1,1,0-2.957H3.346V1.478a1.479,1.479,0,0,1,2.957,0V3.342H8.162a1.479,1.479,0,1,1,0,2.957H6.3v1.86a1.479,1.479,0,1,1-2.957,0Z" transform="translate(676.42 398.99)" fill="#fff"/>
    </g>
    <g transform="matrix(1, 0, 0, 1, -96.07, 30.17)" filter="url(#Union_4)">
      <path id="Union_4-2" data-name="Union 4" d="M3.346,8.159V6.3H1.48a1.479,1.479,0,1,1,0-2.957H3.346V1.478a1.479,1.479,0,0,1,2.957,0V3.342H8.162a1.479,1.479,0,1,1,0,2.957H6.3v1.86a1.479,1.479,0,1,1-2.957,0Z" transform="translate(373.11 550.85) rotate(45)" fill="#fff"/>
    </g>
    <g transform="matrix(1, 0, 0, 1, -96.07, 30.17)" filter="url(#Rectangle_2687)">
      <rect id="Rectangle_2687-2" data-name="Rectangle 2687" width="505.768" height="80.875" rx="10" transform="translate(165.51 226.19)" fill="#fff" stroke="#eef0f7" stroke-width="1" opacity="0.498"/>
    </g>
    <g transform="matrix(1, 0, 0, 1, -96.07, 30.17)" filter="url(#Rectangle_2686)">
      <rect id="Rectangle_2686-2" data-name="Rectangle 2686" width="505.768" height="80.875" rx="10" transform="translate(165.51 249.57)" fill="#fff" stroke="#eef0f7" stroke-width="1" opacity="0.498"/>
    </g>
    <g transform="matrix(1, 0, 0, 1, -96.07, 30.17)" filter="url(#Rectangle_2671)">
      <rect id="Rectangle_2671-2" data-name="Rectangle 2671" width="505.768" height="263.858" rx="10" transform="translate(165.51 278.06)" fill="#fff" stroke="#eef0f7" stroke-width="1"/>
    </g>
    <g transform="matrix(1, 0, 0, 1, -96.07, 30.17)" filter="url(#Rectangle_2673)">
      <rect id="Rectangle_2673-2" data-name="Rectangle 2673" width="155.547" height="263.858" rx="10" transform="translate(165.51 278.06)" fill="#fff" stroke="#eef0f7" stroke-width="1"/>
    </g>
    <g transform="matrix(1, 0, 0, 1, -96.07, 30.17)" filter="url(#Rectangle_2674)">
      <rect id="Rectangle_2674-2" data-name="Rectangle 2674" width="121.193" height="18.608" rx="5" transform="translate(182.68 301.44)" fill="#e1e3eb" stroke="#eef0f7" stroke-width="1"/>
    </g>
    <g transform="matrix(1, 0, 0, 1, -96.07, 30.17)" filter="url(#Rectangle_2677)">
      <rect id="Rectangle_2677-2" data-name="Rectangle 2677" width="121.193" height="18.608" rx="5" transform="translate(182.68 371.11)" fill="#e1e3eb" stroke="#eef0f7" stroke-width="1"/>
    </g>
    <g transform="matrix(1, 0, 0, 1, -96.07, 30.17)" filter="url(#Rectangle_2675)">
      <rect id="Rectangle_2675-2" data-name="Rectangle 2675" width="121.193" height="18.608" rx="5" transform="translate(182.68 335.8)" fill="#e1e3eb" stroke="#eef0f7" stroke-width="1"/>
    </g>
    <g transform="matrix(1, 0, 0, 1, -96.07, 30.17)" filter="url(#Rectangle_2676)">
      <rect id="Rectangle_2676-2" data-name="Rectangle 2676" width="121.193" height="18.608" rx="5" transform="translate(182.68 406.41)" fill="#e1e3eb" stroke="#eef0f7" stroke-width="1"/>
    </g>
    <rect id="Rectangle_2683" data-name="Rectangle 2683" width="121.193" height="18.608" rx="5" transform="translate(86.618 538.932)" fill="#eef7fe"/>
    <rect id="Rectangle_2672" data-name="Rectangle 2672" width="295.651" height="48.43" rx="10" transform="translate(254.182 326.844)" fill="#f3f5fe"/>
    <g transform="matrix(1, 0, 0, 1, -96.07, 30.17)" filter="url(#Rectangle_2678)">
      <rect id="Rectangle_2678-2" data-name="Rectangle 2678" width="87" height="34" rx="6" transform="translate(360.07 302.83)" fill="#fff"/>
    </g>
    <g transform="matrix(1, 0, 0, 1, -96.07, 30.17)" filter="url(#Rectangle_2681)">
      <rect id="Rectangle_2681-2" data-name="Rectangle 2681" width="88" height="34" rx="6" transform="translate(454.07 302.83)" fill="#fff"/>
    </g>
    <g transform="matrix(1, 0, 0, 1, -96.07, 30.17)" filter="url(#Rectangle_2682)">
      <rect id="Rectangle_2682-2" data-name="Rectangle 2682" width="87" height="34" rx="6" transform="translate(549.07 302.83)" fill="#fff"/>
    </g>
    <g id="Group_710" data-name="Group 710" transform="translate(254.571 399.367)">
      <line id="Line_61" data-name="Line 61" x2="297.735" transform="translate(0 0)" fill="none" stroke="#f0f2fb" stroke-width="1"/>
      <line id="Line_64" data-name="Line 64" x2="297.735" transform="translate(0 64.175)" fill="none" stroke="#f0f2fb" stroke-width="1"/>
      <line id="Line_62" data-name="Line 62" x2="297.735" transform="translate(0 32.088)" fill="none" stroke="#f0f2fb" stroke-width="1"/>
      <line id="Line_63" data-name="Line 63" x2="297.735" transform="translate(0 96.263)" fill="none" stroke="#f0f2fb" stroke-width="1"/>
      <line id="Line_65" data-name="Line 65" x2="297.735" transform="translate(0 128.35)" fill="none" stroke="#f0f2fb" stroke-width="1"/>
    </g>
    <g id="Group_707" data-name="Group 707" transform="translate(272.226 342.588)">
      <rect id="Rectangle_2679" data-name="Rectangle 2679" width="15" height="15" transform="translate(-0.226 0.412)" fill="#ffc4dd"/>
      <rect id="Rectangle_2680" data-name="Rectangle 2680" width="54" height="15" rx="7.5" transform="translate(18.774 0.412)" fill="#edf0fa"/>
    </g>
    <g id="Group_708" data-name="Group 708" transform="translate(365.744 342.588)">
      <rect id="Rectangle_2679-2" data-name="Rectangle 2679" width="15" height="15" transform="translate(0.256 0.412)" fill="#ffc4dd"/>
      <rect id="Rectangle_2680-2" data-name="Rectangle 2680" width="52" height="15" rx="7.5" transform="translate(20.256 0.412)" fill="#edf0fa"/>
    </g>
    <g id="Group_709" data-name="Group 709" transform="translate(460.218 342.588)">
      <rect id="Rectangle_2679-3" data-name="Rectangle 2679" width="15" height="15" transform="translate(-0.218 0.412)" fill="#ffc4dd"/>
      <rect id="Rectangle_2680-3" data-name="Rectangle 2680" width="53" height="15" rx="7.5" transform="translate(19.782 0.412)" fill="#edf0fa"/>
    </g>
    <g transform="matrix(1, 0, 0, 1, -96.07, 30.17)" filter="url(#Path_945)">
      <path id="Path_945-2" data-name="Path 945" d="M-9510.711-20284.715s28.912-1.428,92.05-41.639,80.952-27.225,136.3-13.969,66.91,6.865,66.91,6.865" transform="translate(9861.35 20748.46)" fill="none" stroke="#22259f" stroke-linecap="round" stroke-linejoin="round" stroke-width="3"/>
    </g>
    <g transform="matrix(1, 0, 0, 1, -96.07, 30.17)" filter="url(#Path_946)">
      <path id="Path_946-2" data-name="Path 946" d="M-10054.453-20179.055s113.469,15.941,158.921-58.949,128.319-63.109,136.961-64.723" transform="translate(10405.13 20672.66)" fill="none" stroke="#69d691" stroke-linecap="round" stroke-linejoin="round" stroke-width="3"/>
    </g>
    <circle id="Ellipse_72" data-name="Ellipse 72" cx="33.5" cy="33.5" r="33.5" transform="translate(523 539)" fill="#45db8a"/>
    <circle id="Ellipse_73" data-name="Ellipse 73" cx="33.5" cy="33.5" r="33.5" transform="translate(523 539)" fill="#54eb9a"/>
    <ellipse id="Ellipse_75" data-name="Ellipse 75" cx="14.5" cy="15" rx="14.5" ry="15" transform="translate(509 558)" fill="#54eb9a"/>
    <g transform="matrix(1, 0, 0, 1, -96.07, 30.17)" filter="url(#Rectangle_2688)">
      <rect id="Rectangle_2688-2" data-name="Rectangle 2688" width="122.52" height="75.865" rx="7" transform="translate(237.18 500.89)" fill="#fff"/>
    </g>
    <g id="Group_712" data-name="Group 712" transform="translate(148.938 539.17)">
      <g transform="matrix(1, 0, 0, 1, -245, -509)" filter="url(#Polygon_2)">
        <path id="Polygon_2-2" data-name="Polygon 2" d="M18.263,8.353a6,6,0,0,1,10.233,0L41.165,29.037a6,6,0,0,1-5.117,9.134H10.711a6,6,0,0,1-5.117-9.134Z" transform="translate(245 529.99)" fill="#688be4"/>
      </g>
      <g transform="matrix(1, 0, 0, 1, -245, -509)" filter="url(#Polygon_1)">
        <path id="Polygon_1-2" data-name="Polygon 1" d="M30.651,8.488a6,6,0,0,1,10.268,0L66.064,50.06a6,6,0,0,1-5.134,9.105H10.641A6,6,0,0,1,5.507,50.06Z" transform="translate(280.31 509)" fill="#45db8a"/>
      </g>
      <g transform="matrix(1, 0, 0, 1, -245, -509)" filter="url(#Ellipse_76)">
        <ellipse id="Ellipse_76-2" data-name="Ellipse 76" cx="8.589" cy="8.588" rx="8.589" ry="8.588" transform="translate(279.36 511.86)" fill="#e67474"/>
      </g>
    </g>
    <text id="_" data-name="%" transform="matrix(0.999, -0.035, 0.035, 0.999, 96.306, 611.533)" fill="#fafbfc" stroke="#fff" stroke-width="0.3" font-size="21" font-family="GothamRounded-Medium, Gotham Rounded" font-weight="500"><tspan x="-8" y="0">%</tspan></text>
  </g>
</svg>
