<svg xmlns="http://www.w3.org/2000/svg" width="103.999" height="59.259" viewBox="0 0 103.999 59.259">
  <g id="new-beko-logo" transform="translate(-1.077 -0.924)">
    <path id="Path_6302" data-name="Path 6302" d="M80.559,8.922H70.173l-7.05,10.669V.924h-8V34.646h8V22.687l8.211,11.959H81.7L70.3,21.17ZM36.71,18.864c.21-2.157,1.577-5.208,4.945-5.208,3.681,0,4.523,3.26,4.523,5.208ZM42.129,8.342c-8.945,0-12.995,7.209-12.995,13.729,0,8.049,5,13.1,13.73,13.1a25.36,25.36,0,0,0,9.311-1.577l-1.052-5.416a22.731,22.731,0,0,1-7.1,1.051c-3.735,0-7-1.578-7.258-4.893H53.332a18.986,18.986,0,0,0,.264-3.156c0-6.366-3.158-12.836-11.467-12.836M14.6,29.49c-3.189,0-5-2.885-5.235-6.861V20.916c.2-3.507,1.68-6.893,5.235-6.893,3.631,0,5.1,3.893,5.1,7.731,0,4.63-2,7.735-5.1,7.735Zm.211-21.148a16.006,16.006,0,0,0-5.445.9V.924H1.077V22.657c.318,7.888,6,12.566,13.31,12.566,6.89,0,13.57-4.315,13.57-13.73,0-7.732-5.26-13.151-13.151-13.151" fill="#3771c8"/>
    <path id="Path_6303" data-name="Path 6303" d="M91.716,32.182c-3.421,0-5.261-3.314-5.261-7.735,0-3.786,1.42-7.731,5.261-7.731,3.628,0,5.1,3.893,5.1,7.731C96.817,29.077,94.817,32.182,91.716,32.182Zm.21-21.148c-8.259,0-13.729,5.313-13.729,13.625S83.98,37.915,91.5,37.915c6.89,0,13.572-4.315,13.572-13.73,0-7.732-5.261-13.151-13.151-13.151M1.078,54.8v8.074l101.058-14.2V40.6Z" transform="translate(0 -2.692)" fill="#3771c8"/>
  </g>
</svg>
