<svg xmlns="http://www.w3.org/2000/svg" width="140.011" height="30.218" viewBox="0 0 140.011 30.218">
  <g id="bosch-logo-simple" transform="translate(0.001 0)">
    <path id="Path_6304" data-name="Path 6304" d="M14.921,0A15.026,15.026,0,0,0,0,15.109,15.026,15.026,0,0,0,14.921,30.218,15.026,15.026,0,0,0,29.843,15.109,15.026,15.026,0,0,0,14.921,0Zm0,28.7a13.6,13.6,0,0,1,0-27.19,13.6,13.6,0,0,1,0,27.19Z" transform="translate(-0.001 0)"/>
    <path id="Path_6305" data-name="Path 6305" d="M41.639,32.344a.326.326,0,0,0-.181-.05.34.34,0,0,0-.345.352V37.4a.3.3,0,0,1-.3.3H31.779a.308.308,0,0,1-.3-.3V32.645a.388.388,0,0,0-.049-.184.343.343,0,0,0-.477-.117,11.534,11.534,0,0,0,.033,19.5.326.326,0,0,0,.181.05.34.34,0,0,0,.345-.352V46.786a.309.309,0,0,1,.3-.3H40.85a.3.3,0,0,1,.3.3v4.758a.388.388,0,0,0,.049.184.343.343,0,0,0,.477.117,11.5,11.5,0,0,0-.033-19.5ZM29.774,48.059l.049.57-.362-.452a9.945,9.945,0,0,1,0-12.18l.312-.4.049-.05-.049.586a13.873,13.873,0,0,0-.066,1.441V46.6C29.708,47.087,29.741,47.573,29.774,48.059Zm11.339-3.686a.3.3,0,0,1-.3.3H31.779a.308.308,0,0,1-.3-.3V39.816a.3.3,0,0,1,.3-.3h9.038a.3.3,0,0,1,.3.3Zm2.038,3.8-.362.452.049-.57a13.875,13.875,0,0,0,.066-1.441V37.571a13.875,13.875,0,0,0-.066-1.441l-.016-.251-.016-.268v-.067l.345.452a9.929,9.929,0,0,1,0,12.18Z" transform="translate(-21.394 -26.986)"/>
    <g id="Group_1958" data-name="Group 1958" transform="translate(38.469 3.418)">
      <path id="Path_6306" data-name="Path 6306" d="M246.649,32.224c-.082-.033-.181-.067-.181-.167a.161.161,0,0,1,.1-.15,4.718,4.718,0,0,0,2.958-4.493c0-3.791-2.514-6.046-6.754-6.046H232.5v22.28h11.207c3.27,0,6.787-2.355,6.787-6.146A5.342,5.342,0,0,0,246.649,32.224Zm-8.973-6.3a.148.148,0,0,1,.148-.15H241.9a2.161,2.161,0,0,1,2.268,2.288,2.245,2.245,0,0,1-2.366,2.221h-3.977a.148.148,0,0,1-.148-.15ZM241.9,39.255h-4.075a.148.148,0,0,1-.148-.15V34.662a.148.148,0,0,1,.148-.15H241.8c1.956,0,3.073.852,3.073,2.355,0,1.553-1.035,2.388-2.974,2.388Zm43.285-9.019-.789-.167c-1.775-.384-3.5-.868-3.5-2.422s1.43-2.255,2.843-2.255a6.38,6.38,0,0,1,4.552,2.054l3.254-3.273a10.173,10.173,0,0,0-7.888-3.374c-4.831,0-8.085,2.789-8.085,6.948,0,4.392,3.4,6.046,6.261,6.664l.772.167c2.777.6,4.092,1.052,4.092,2.656,0,1.436-1.265,2.388-3.139,2.388a7.071,7.071,0,0,1-5.637-2.839l-3.336,3.324c1.775,2.138,4.125,4.075,9.038,4.075,4.19,0,8.447-2.472,8.447-7.215-.016-4.86-3.27-5.962-6.886-6.731Zm43.3-8.868v8.15a.149.149,0,0,1-.148.15H321.6a.149.149,0,0,1-.148-.15v-8.15h-5.522v22.28h5.522V34.9a.149.149,0,0,1,.148-.15h6.738a.149.149,0,0,1,.148.15v8.752h5.554V21.368Zm-23.664,17.72c-2.481,0-5.16-2.1-5.16-6.731,0-4.225,2.514-6.43,5-6.43a4.389,4.389,0,0,1,4.075,2.472l4.24-2.856c-2.169-3.24-4.749-4.71-8.348-4.71-7.05,0-10.205,5.8-10.205,11.524,0,6.964,4.174,11.825,10.139,11.825,4.437,0,6.458-1.653,8.578-4.71l-4.273-2.923c-.953,1.57-1.988,2.539-4.043,2.539ZM262.9,20.8c-6.031,0-10.074,4.693-10.074,11.691s4.043,11.691,10.074,11.691,10.074-4.693,10.074-11.691S268.932,20.8,262.9,20.8Zm0,18.288c-2.958,0-4.864-2.589-4.864-6.6,0-3.992,1.906-6.564,4.864-6.564,2.974,0,4.9,2.572,4.9,6.564C267.8,36.5,265.876,39.088,262.9,39.088Z" transform="translate(-232.5 -20.8)" fill="#f80000"/>
    </g>
  </g>
</svg>
