<svg xmlns="http://www.w3.org/2000/svg" xmlns:xlink="http://www.w3.org/1999/xlink" width="174" height="160" viewBox="0 0 174 160">
  <defs>
    <filter id="Path_6374" x="29.15" y="44.636" width="100.694" height="89.236" filterUnits="userSpaceOnUse">
      <feOffset dy="3" input="SourceAlpha"/>
      <feGaussianBlur stdDeviation="3" result="blur"/>
      <feFlood flood-opacity="0.02"/>
      <feComposite operator="in" in2="blur"/>
      <feComposite in="SourceGraphic"/>
    </filter>
  </defs>
  <g id="Group_1989" data-name="Group 1989" transform="translate(-1468 -648.595)">
    <g id="Group_1987" data-name="Group 1987" transform="translate(1468 649)">
      <circle id="Ellipse_267" data-name="Ellipse 267" cx="12" cy="12" r="12" transform="translate(150 27.595)" fill="#eef5ea"/>
      <rect id="Rectangle_2714" data-name="Rectangle 2714" width="145" height="146" rx="72.5" transform="translate(5 8.595)" fill="#eef5ea"/>
      <ellipse id="Ellipse_270" data-name="Ellipse 270" cx="7" cy="6.5" rx="7" ry="6.5" transform="translate(15 146.595)" fill="#eef5ea"/>
      <circle id="Ellipse_268" data-name="Ellipse 268" cx="8.5" cy="8.5" r="8.5" transform="translate(0 -0.405)" fill="#eef5ea"/>
    </g>
    <g id="Group_1988" data-name="Group 1988" transform="matrix(0.966, 0.259, -0.259, 0.966, 1511.69, 678.558)">
      <path id="Path_6371" data-name="Path 6371" d="M52.94,0H1.866a1.866,1.866,0,1,0,0,3.731H52.939A1.866,1.866,0,0,0,52.94,0Z" transform="matrix(0.966, -0.259, 0.259, 0.966, 17.069, 31.227)" fill="#fff"/>
      <path id="Path_6372" data-name="Path 6372" d="M52.94,0H1.866a1.866,1.866,0,0,0,0,3.731H52.939A1.866,1.866,0,0,0,52.94,0Z" transform="matrix(0.966, -0.259, 0.259, 0.966, 20.117, 42.601)" fill="#fff"/>
      <path id="Path_6373" data-name="Path 6373" d="M27.4,0H1.866a1.866,1.866,0,1,0,0,3.731H27.4A1.866,1.866,0,1,0,27.4,0Z" transform="matrix(0.966, -0.259, 0.259, 0.966, 23.164, 53.973)" fill="#fff"/>
      <g transform="matrix(0.97, -0.26, 0.26, 0.97, -49.96, -17.63)" filter="url(#Path_6374)">
        <path id="Path_6374-2" data-name="Path 6374" d="M70.652,0H12.041A12.055,12.055,0,0,0,0,12.041V42.314A12.055,12.055,0,0,0,12.042,54.355h.421L10.051,67.742a2.966,2.966,0,0,0,4.962,2.677L31.522,54.748a1.426,1.426,0,0,1,.986-.393H70.652A12.055,12.055,0,0,0,82.694,42.314V12.042A12.054,12.054,0,0,0,70.652,0Zm8.31,42.314a8.32,8.32,0,0,1-8.31,8.31H32.508a5.143,5.143,0,0,0-3.555,1.419L14.137,66.106l2.093-11.623A3.279,3.279,0,0,0,13,50.623h-.963a8.32,8.32,0,0,1-8.31-8.31V12.041a8.319,8.319,0,0,1,8.31-8.31H70.652a8.32,8.32,0,0,1,8.31,8.31Z" transform="translate(38.15 50.64)" fill="#fff"/>
      </g>
    </g>
  </g>
</svg>
