<svg xmlns="http://www.w3.org/2000/svg" xmlns:xlink="http://www.w3.org/1999/xlink" width="214" height="179" viewBox="0 0 214 179">
  <defs>
    <filter id="Path_994" x="36.453" y="57.887" width="99.73" height="88.407" filterUnits="userSpaceOnUse">
      <feOffset dy="3" input="SourceAlpha"/>
      <feGaussianBlur stdDeviation="3" result="blur"/>
      <feFlood flood-opacity="0.02"/>
      <feComposite operator="in" in2="blur"/>
      <feComposite in="SourceGraphic"/>
    </filter>
    <filter id="Path_996" x="89.335" y="37.021" width="90.987" height="80.584" filterUnits="userSpaceOnUse">
      <feOffset dy="3" input="SourceAlpha"/>
      <feGaussianBlur stdDeviation="3" result="blur-2"/>
      <feFlood flood-opacity="0.02"/>
      <feComposite operator="in" in2="blur-2"/>
      <feComposite in="SourceGraphic"/>
    </filter>
  </defs>
  <g id="Group_1990" data-name="Group 1990" transform="translate(-765 -650)">
    <g id="Group_1985" data-name="Group 1985" transform="translate(765.077 650.26)">
      <circle id="Ellipse_267" data-name="Ellipse 267" cx="13" cy="13" r="13" transform="translate(187.923 28.74)" fill="#f1f3f7"/>
      <ellipse id="Ellipse_269" data-name="Ellipse 269" cx="13" cy="12.5" rx="13" ry="12.5" transform="translate(-0.077 24.74)" fill="#f1f3f7"/>
      <rect id="Rectangle_2714" data-name="Rectangle 2714" width="157" height="158" rx="78.5" transform="translate(30.923 7.74)" fill="#eef0f7"/>
      <ellipse id="Ellipse_266" data-name="Ellipse 266" cx="9.5" cy="10" rx="9.5" ry="10" transform="translate(175.923 -0.26)" fill="#f1f3f7"/>
      <ellipse id="Ellipse_270" data-name="Ellipse 270" cx="7.5" cy="7" rx="7.5" ry="7" transform="translate(41.923 156.74)" fill="#f1f3f7"/>
      <ellipse id="Ellipse_268" data-name="Ellipse 268" cx="8" cy="9" rx="8" ry="9" transform="translate(168.923 160.74)" fill="#f1f3f7"/>
    </g>
    <g id="chat" transform="translate(810.453 693.021)">
      <g id="Group_720" data-name="Group 720" transform="translate(0 0)">
        <path id="Path_987" data-name="Path 987" d="M108.395,281.541H57.916a1.844,1.844,0,1,0,0,3.688h50.479a1.844,1.844,0,0,0,0-3.688Z" transform="translate(-42.29 -246.928)" fill="#fff"/>
        <path id="Path_988" data-name="Path 988" d="M108.395,328.871H57.916a1.844,1.844,0,0,0,0,3.688h50.479a1.844,1.844,0,0,0,0-3.688Z" transform="translate(-42.29 -282.621)" fill="#fff"/>
        <path id="Path_989" data-name="Path 989" d="M83.155,376.2H57.916a1.844,1.844,0,1,0,0,3.688H83.155a1.844,1.844,0,1,0,0-3.688Z" transform="translate(-42.29 -318.315)" fill="#fff"/>
        <path id="Path_990" data-name="Path 990" d="M305.712,186.88H255.233a1.844,1.844,0,1,0,0,3.688h50.479a1.844,1.844,0,1,0,0-3.688Z" transform="translate(-191.096 -175.54)" fill="#fff"/>
        <path id="Path_991" data-name="Path 991" d="M383.133,234.21h-25.24a1.844,1.844,0,1,0,0,3.688h25.24a1.844,1.844,0,0,0,0-3.688Z" transform="translate(-268.516 -211.233)" fill="#fff"/>
        <g transform="matrix(1, 0, 0, 1, -45.45, -43.02)" filter="url(#Path_994)">
          <path id="Path_994-2" data-name="Path 994" d="M69.844,225.624H11.916a11.915,11.915,0,0,0-11.9,11.9v29.92a11.915,11.915,0,0,0,11.9,11.9h.416L9.949,292.578a2.932,2.932,0,0,0,4.9,2.646l16.317-15.489a1.409,1.409,0,0,1,.975-.389h37.7a11.914,11.914,0,0,0,11.9-11.9v-29.92A11.914,11.914,0,0,0,69.844,225.624Zm8.213,41.821a8.223,8.223,0,0,1-8.213,8.213h-37.7a5.083,5.083,0,0,0-3.514,1.4l-14.643,13.9,2.069-11.488a3.24,3.24,0,0,0-3.189-3.815h-.951A8.223,8.223,0,0,1,3.7,267.445v-29.92a8.223,8.223,0,0,1,8.213-8.213H69.844a8.223,8.223,0,0,1,8.213,8.213Z" transform="translate(45.44 -161.74)" fill="#fff"/>
        </g>
        <g transform="matrix(1, 0, 0, 1, -45.45, -43.02)" filter="url(#Path_996)">
          <path id="Path_996-2" data-name="Path 996" d="M277.326,140.754H225.887a10.787,10.787,0,0,0-10.774,10.774v3.316a1.844,1.844,0,1,0,3.688,0v-3.316a7.094,7.094,0,0,1,7.086-7.086h51.439a7.094,7.094,0,0,1,7.086,7.086v26.22a7.094,7.094,0,0,1-7.086,7.087h-.845a3.084,3.084,0,0,0-3.035,3.63l1.725,9.581-12.545-11.909a4.718,4.718,0,0,0-3.262-1.3h-8.627a1.844,1.844,0,1,0,0,3.688h8.627a1.046,1.046,0,0,1,.723.289l14.488,13.754a2.81,2.81,0,0,0,4.7-2.536L277.2,188.523h.122A10.787,10.787,0,0,0,288.1,177.749v-26.22A10.786,10.786,0,0,0,277.326,140.754Z" transform="translate(-116.78 -97.73)" fill="#fff"/>
        </g>
      </g>
    </g>
  </g>
</svg>
