<svg xmlns="http://www.w3.org/2000/svg" width="132.84" height="20.968" viewBox="0 0 132.84 20.968">
  <path id="Path_6307" data-name="Path 6307" d="M21.523,83.036v3.876a17.549,17.549,0,0,0-5.471-1.021c-1.987,0-3.092.605-3.092,1.693,0,.694.484,1.154,1.872,1.778l3.733,1.675c2.986,1.342,4.491,3.3,4.491,5.843,0,3.925-3.4,6.4-8.783,6.4a30.765,30.765,0,0,1-6.643-.825V98.449a25.078,25.078,0,0,0,6.272,1c2.227,0,3.419-.62,3.419-1.776,0-.695-.466-1.205-1.533-1.682L11.7,94.167C8.674,92.817,7.276,91,7.276,88.4c0-3.717,3.275-6.088,8.412-6.088a26.212,26.212,0,0,1,5.835.721Zm4.44-.315H32v20.153H25.963Zm25.667,0v3.692H42.515v4.546h7.962V94.3H42.515v4.713h9.232v3.864h-15.1V82.721Zm28.522,0v20.153H74.31V89.61l-5.722,13.422H64.9L59.212,89.61v13.265H55.179V82.721h7.372L67.763,94.98l5.185-12.259h7.2Zm19.645,0v3.692H90.669v4.546h7.96V94.3h-7.96v4.713H99.9v3.864H84.787V82.721Zm21.265,0v20.153h-6.443l-7.255-12.926v12.926H103.33V82.721h6.613l7.1,12.755V82.721Zm17.521.315v3.876a17.585,17.585,0,0,0-5.441-1.021c-2.018,0-3.123.6-3.123,1.687,0,.711.451,1.136,1.887,1.785l3.717,1.675c3.008,1.356,4.494,3.3,4.494,5.87,0,3.9-3.4,6.376-8.774,6.376a30.891,30.891,0,0,1-6.652-.825V98.451a25.073,25.073,0,0,0,6.253,1c2.212,0,3.437-.62,3.437-1.74,0-.741-.429-1.219-1.548-1.718l-4.069-1.82c-3.047-1.361-4.429-3.16-4.429-5.764,0-3.715,3.276-6.087,8.4-6.087a26.1,26.1,0,0,1,5.846.718Z" transform="translate(-7.276 -82.315)" fill="#00a0b0" fill-rule="evenodd"/>
</svg>
