<svg xmlns="http://www.w3.org/2000/svg" xmlns:xlink="http://www.w3.org/1999/xlink" width="392" height="327" viewBox="0 0 392 327">
  <defs>
    <linearGradient id="linear-gradient" x1="0.5" x2="0.5" y2="1" gradientUnits="objectBoundingBox">
      <stop offset="0" stop-color="#e4ecf4"/>
      <stop offset="1" stop-color="#e2eaf2"/>
    </linearGradient>
    <filter id="Path_6350" x="81.094" y="9.768" width="246.853" height="264.512" filterUnits="userSpaceOnUse">
      <feOffset dy="3" input="SourceAlpha"/>
      <feGaussianBlur stdDeviation="6" result="blur"/>
      <feFlood flood-opacity="0.204"/>
      <feComposite operator="in" in2="blur"/>
      <feComposite in="SourceGraphic"/>
    </filter>
  </defs>
  <g id="Group_1966" data-name="Group 1966" transform="translate(-1131 -140)">
    <circle id="Ellipse_267" data-name="Ellipse 267" cx="23.5" cy="23.5" r="23.5" transform="translate(1476 194)" fill="#ecf4fc"/>
    <circle id="Ellipse_269" data-name="Ellipse 269" cx="23.5" cy="23.5" r="23.5" transform="translate(1131 185)" fill="#ecf4fc"/>
    <rect id="Rectangle_2714" data-name="Rectangle 2714" width="289" height="288" rx="144" transform="translate(1187 156)" fill="url(#linear-gradient)"/>
    <circle id="Ellipse_266" data-name="Ellipse 266" cx="18" cy="18" r="18" transform="translate(1453 140)" fill="#ecf4fc"/>
    <circle id="Ellipse_270" data-name="Ellipse 270" cx="14" cy="14" r="14" transform="translate(1208 426)" fill="#ecf4fc"/>
    <circle id="Ellipse_268" data-name="Ellipse 268" cx="15.5" cy="15.5" r="15.5" transform="translate(1440 436)" fill="#ecf4fc"/>
    <g id="stamp" transform="translate(1316.531 153.178) rotate(30)">
      <g transform="matrix(0.87, -0.5, 0.5, 0.87, -167.26, 81.35)" filter="url(#Path_6350)">
        <path id="Path_6350-2" data-name="Path 6350" d="M144.2,188.441H7.5V164.319a16.082,16.082,0,0,1,16.082-16.082H128.114A16.082,16.082,0,0,1,144.2,164.319Zm-40.349-68.348a12.061,12.061,0,0,1-12.061,12.061H59.621a12.061,12.061,0,0,1,0-24.123H91.785a12.061,12.061,0,0,1,12.061,12.061Zm.145-88.45L87.909,108.032H63.787L47.7,31.643a28.143,28.143,0,1,1,56.286,0Zm8.041,116.593A16.082,16.082,0,0,1,95.95,132.155h-40.2a16.082,16.082,0,0,1-16.082,16.082" transform="translate(186.82 17.99) rotate(30)" fill="#f9f7ff"/>
      </g>
      <path id="Path_6351" data-name="Path 6351" d="M8.5,26.5H129.114V42.582H8.5Z" transform="translate(10.561 165.462)" fill="#e2dcf3"/>
      <path id="Path_6352" data-name="Path 6352" d="M131.634,147.737H115.553a12.051,12.051,0,0,1-11.9-10.445,15.99,15.99,0,0,0-7.293-29.655l15.085-71.653a2.326,2.326,0,0,0,0-.41,2.491,2.491,0,0,0,.088-.41c0-.249-.064-.474-.072-.724l-.008-.064a32.091,32.091,0,0,0-64.167,0l-.008.064c-.008.249-.072.474-.072.724a3.691,3.691,0,0,0,.08.41c.016.137-.024.273,0,.41L62.362,107.6a15.99,15.99,0,0,0-7.3,29.832,12.037,12.037,0,0,1-11.876,10.3H27.1A20.126,20.126,0,0,0,7,167.839v24.123a4.02,4.02,0,0,0,4.02,4.02h4.02v12.061a4.02,4.02,0,0,0,4.02,4.02H139.675a4.02,4.02,0,0,0,4.02-4.02V195.982h4.02a4.02,4.02,0,0,0,4.02-4.02V167.839A20.125,20.125,0,0,0,131.634,147.737ZM79.368,11.041a24.123,24.123,0,0,1,24.091,23.841l-15.294,72.65H70.572L55.278,34.882A24.123,24.123,0,0,1,79.368,11.041ZM63.142,115.573H95.305a8.049,8.049,0,0,1,0,16.082H63.142a8.049,8.049,0,0,1,0-16.082Zm-.257,24.1c.088,0,.169.024.257.024H95.305c.185,0,.362-.048.547-.056a19.864,19.864,0,0,0,3.723,8.1H59.17A20.037,20.037,0,0,0,62.884,139.672Zm72.77,64.352H23.082v-8.041H135.655Zm8.041-16.082H15.041v-20.1A12.076,12.076,0,0,1,27.1,155.778H131.634A12.076,12.076,0,0,1,143.7,167.839Z" transform="translate(0 0)" fill="#454545"/>
    </g>
    <path id="Path_6353" data-name="Path 6353" d="M3.264-11.53A2.747,2.747,0,0,0,6.11-8.837,3.59,3.59,0,0,0,8.8-10.412l6.5-8.385,6.5,8.385a3.382,3.382,0,0,0,2.846,1.575A2.778,2.778,0,0,0,27.5-11.683a3.668,3.668,0,0,0-1.016-2.338l-7.521-8.893,7.267-8.69a3.1,3.1,0,0,0,.864-2.084,2.761,2.761,0,0,0-2.9-2.693A3.437,3.437,0,0,0,21.558-34.8l-6.149,7.877L9.362-34.855A3.455,3.455,0,0,0,6.516-36.38a2.778,2.778,0,0,0-2.846,2.846A3.668,3.668,0,0,0,4.687-31.2l7.064,8.385L4.128-13.665A3,3,0,0,0,3.264-11.53Z" transform="translate(1391.597 346.609)" fill="#c9dbe6"/>
    <g id="Ellipse_271" data-name="Ellipse 271" transform="translate(1373 291)" fill="none" stroke="#c9dbe6" stroke-width="6">
      <ellipse cx="33.5" cy="33" rx="33.5" ry="33" stroke="none"/>
      <ellipse cx="33.5" cy="33" rx="30.5" ry="30" fill="none"/>
    </g>
  </g>
</svg>
